<?xml version="1.0" standalone="no"?>
<!DOCTYPE svg PUBLIC "-//W3C//DTD SVG 20010904//EN"
 "http://www.w3.org/TR/2001/REC-SVG-20010904/DTD/svg10.dtd">
<svg version="1.0" xmlns="http://www.w3.org/2000/svg"
 width="1552.000000pt" height="1552.000000pt" viewBox="0 0 1552.000000 1552.000000"
 preserveAspectRatio="xMidYMid meet">
<metadata>
Created by potrace 1.14, written by Peter Selinger 2001-2017
</metadata>
<g transform="translate(0.000000,1552.000000) scale(0.100000,-0.100000)"
fill="#000000" stroke="none">
<path d="M1255 10008 c-51 -22 -137 -80 -190 -130 -16 -15 -35 -28 -41 -28
-15 0 -158 -47 -204 -67 -246 -106 -363 -185 -491 -331 -67 -76 -138 -207
-160 -298 -6 -27 -15 -53 -19 -59 -6 -9 -5 -125 2 -170 11 -67 88 -223 144
-292 38 -46 107 -88 130 -79 8 3 14 14 14 25 0 25 58 201 72 218 6 7 7 13 4
13 -13 0 74 144 134 220 68 86 213 220 240 220 4 0 6 -13 4 -28 -2 -16 -6
-118 -9 -228 -3 -109 -7 -253 -9 -319 -3 -66 -7 -192 -10 -280 -8 -226 -15
-402 -22 -535 -5 -109 -9 -187 -15 -328 l-2 -63 -93 2 c-51 1 -111 5 -133 9
-26 5 -41 3 -44 -4 -6 -16 -1 -176 7 -211 17 -72 38 -135 48 -141 6 -4 25 -8
42 -10 67 -5 151 -16 159 -21 4 -2 5 -8 3 -12 -5 -7 -13 -149 -22 -341 -5
-126 -5 -720 0 -790 8 -111 36 -245 70 -345 l14 -40 59 2 c73 2 108 9 208 40
113 35 262 112 288 148 4 5 4 21 1 35 -3 14 -8 34 -11 45 -10 41 -35 191 -38
230 -1 22 -6 76 -9 120 -4 44 -8 125 -11 180 -2 55 -7 161 -11 235 -3 74 -7
217 -8 318 l-2 182 23 1 c13 1 26 2 31 3 4 1 32 6 62 10 30 4 62 9 70 11 8 2
27 5 43 8 15 3 35 8 45 11 9 3 28 7 42 10 14 2 58 13 98 24 60 17 72 18 72 6
0 -8 9 -33 19 -57 31 -68 127 -325 164 -438 19 -57 53 -162 76 -234 42 -131
83 -245 107 -300 7 -16 25 -59 39 -95 100 -244 246 -449 380 -535 91 -58 166
-79 285 -79 140 0 202 12 306 59 76 34 201 162 159 162 -51 0 -159 54 -256
129 -56 43 -200 193 -208 217 -2 7 -7 14 -11 17 -13 10 -100 140 -100 150 0 5
-4 10 -10 10 -5 0 -9 3 -8 8 1 4 -5 18 -13 32 -33 53 -79 130 -79 135 0 2 -23
53 -51 112 -28 59 -52 113 -54 118 -1 6 -12 32 -23 58 -12 27 -22 50 -22 52 0
1 -8 20 -17 41 -9 22 -18 44 -19 49 -5 21 -67 201 -80 230 -7 17 -20 50 -29
75 -23 63 -31 81 -43 110 -6 14 -21 50 -32 80 -12 30 -26 64 -30 75 -16 40
-19 55 -11 55 19 0 183 131 262 210 86 85 199 227 199 248 0 7 4 12 9 12 14 0
128 240 154 325 69 223 90 491 53 695 -3 14 -7 41 -10 61 -3 20 -10 48 -16 63
-5 15 -12 37 -14 49 -5 29 -37 109 -48 122 -4 5 -8 17 -8 26 0 10 -3 19 -7 21
-5 2 -17 19 -27 38 -11 19 -31 53 -45 74 -14 21 -30 46 -36 54 -32 48 -120
139 -195 200 -36 29 -70 57 -77 62 -7 6 -16 10 -21 10 -5 0 -15 6 -21 14 -7 8
-38 27 -69 42 -31 16 -59 32 -62 35 -11 13 -171 69 -271 93 -174 44 -263 51
-523 43 l-69 -2 -4 30 c-10 79 -74 104 -168 63z m408 -572 c15 -3 37 -8 50
-10 219 -44 422 -175 532 -345 71 -109 116 -223 132 -331 15 -94 8 -341 -12
-445 -15 -78 -74 -235 -88 -235 -6 0 -8 -3 -4 -6 18 -18 -169 -244 -254 -309
-25 -19 -148 -95 -154 -95 -3 0 -27 -11 -54 -24 -75 -36 -450 -133 -464 -120
-2 2 -2 102 0 222 1 119 5 335 7 478 2 144 6 266 10 272 3 6 2 13 -3 16 -6 4
-6 18 -1 36 5 19 5 30 -1 30 -6 0 -7 5 -3 11 4 6 8 86 10 178 5 265 15 603 18
637 6 56 8 57 135 51 64 -3 128 -8 144 -11z"/>
<path d="M12765 9180 c-117 -25 -219 -118 -260 -235 -23 -67 -27 -196 -7 -263
22 -78 102 -155 174 -167 158 -27 270 12 388 134 62 64 69 74 105 151 31 64
42 148 26 205 -36 131 -241 215 -426 175z m213 -262 c13 -18 7 -61 -12 -86
-105 -134 -225 -200 -257 -141 -25 48 11 114 99 180 87 66 144 82 170 47z"/>
<path d="M4185 8393 c-16 -2 -50 -8 -75 -14 -25 -6 -56 -13 -69 -15 -64 -13
-255 -118 -331 -184 -91 -79 -165 -162 -238 -268 -32 -46 -144 -262 -137 -262
3 0 0 -10 -7 -22 -17 -31 -34 -79 -59 -166 -22 -77 -25 -94 -34 -152 -3 -20
-8 -47 -10 -60 -23 -118 -23 -436 0 -520 2 -8 7 -31 11 -50 3 -19 7 -39 8 -45
1 -5 5 -16 9 -22 5 -7 5 -13 1 -13 -3 0 -2 -6 3 -12 6 -7 13 -25 17 -41 10
-44 56 -137 100 -202 158 -237 414 -349 736 -321 155 13 289 78 433 209 41 38
147 167 147 179 0 5 11 26 25 48 14 22 23 40 20 40 -3 0 1 10 9 23 12 18 42
107 52 152 1 6 6 28 11 50 18 79 -3 128 -51 119 -25 -5 -27 -7 -66 -79 -73
-134 -133 -205 -232 -280 -177 -133 -376 -159 -553 -74 -111 52 -185 153 -216
289 -4 19 -9 44 -12 55 -3 11 -8 49 -12 85 -4 36 -9 68 -11 72 -2 4 0 9 5 12
5 4 12 2 16 -4 10 -16 97 -57 135 -64 58 -11 142 -12 190 -3 54 10 75 15 75
17 0 1 7 3 15 5 35 7 152 68 217 114 128 90 237 210 325 356 75 126 109 215
131 346 38 220 -20 452 -137 557 -10 9 -30 28 -45 41 -40 36 -103 70 -162 87
-51 15 -170 24 -234 17z m160 -291 c13 -20 29 -59 35 -86 11 -51 14 -211 5
-256 -2 -13 -7 -42 -11 -64 -14 -95 -84 -227 -160 -299 -105 -101 -290 -194
-486 -247 l-66 -18 4 37 c11 98 17 127 51 241 20 72 119 292 145 325 17 20 58
86 58 91 0 3 6 12 13 19 6 8 26 31 42 52 83 105 202 211 275 245 42 20 61 12
95 -40z"/>
<path d="M6005 8383 c-106 -20 -104 -20 -189 -48 -71 -23 -184 -75 -256 -116
-43 -24 -179 -129 -208 -158 -65 -69 -90 -100 -127 -156 -61 -92 -75 -126
-102 -240 -12 -52 -9 -209 4 -267 25 -107 67 -168 193 -278 47 -41 213 -124
298 -149 67 -20 350 -82 465 -102 117 -20 231 -65 284 -114 28 -25 38 -98 21
-140 -31 -77 -155 -158 -293 -192 -69 -17 -108 -20 -194 -18 -273 9 -422 130
-430 350 -1 33 -3 61 -5 62 -2 3 -95 -42 -120 -59 -26 -17 -136 -130 -136
-139 0 -4 -6 -14 -12 -21 -43 -45 -88 -173 -89 -254 -2 -104 70 -199 198 -260
143 -69 279 -94 488 -89 83 1 161 5 175 8 14 2 43 8 64 12 22 4 83 23 135 42
53 19 104 37 114 40 9 3 17 9 17 14 0 5 5 9 10 9 27 0 190 129 190 150 0 5 4
10 9 10 13 0 75 104 100 168 53 135 48 299 -12 387 -40 59 -123 131 -192 167
-38 20 -140 62 -225 93 -194 69 -181 65 -265 106 -179 88 -294 201 -340 334
-35 103 -24 244 28 340 12 22 24 42 27 45 3 3 21 26 40 52 19 26 40 48 47 48
6 0 13 4 15 8 12 31 163 106 236 118 125 21 194 1 237 -66 64 -102 47 -223
-52 -370 -12 -19 -23 -37 -23 -41 0 -20 162 -70 230 -70 53 -1 73 2 134 19 32
9 103 85 109 117 2 11 9 40 16 65 16 55 21 206 9 268 -35 193 -218 320 -468
327 -47 1 -116 -4 -155 -12z"/>
<path d="M7888 8395 c-2 -2 -21 -6 -42 -9 -131 -21 -284 -90 -411 -186 -57
-43 -197 -195 -244 -265 -55 -82 -127 -213 -151 -275 -7 -19 -21 -53 -31 -76
-10 -22 -20 -52 -24 -65 -3 -13 -16 -71 -30 -129 -25 -105 -29 -129 -41 -230
-8 -74 -8 -299 1 -352 4 -24 9 -56 11 -73 11 -67 15 -85 25 -112 6 -15 11 -30
11 -33 1 -6 8 -31 16 -50 3 -8 6 -18 7 -22 2 -5 4 -10 5 -13 1 -3 3 -8 4 -12
2 -8 32 -65 63 -120 46 -81 142 -182 225 -236 57 -37 172 -86 216 -92 15 -2
34 -6 42 -9 38 -14 218 -22 290 -12 128 16 252 72 364 166 47 39 118 112 147
150 56 75 129 223 144 290 1 3 6 23 13 45 19 70 21 108 7 141 -11 28 -18 32
-40 28 -35 -6 -43 -16 -80 -89 -16 -33 -33 -64 -37 -70 -28 -38 -114 -141
-123 -147 -6 -3 -22 -17 -37 -31 -41 -38 -142 -96 -206 -119 -58 -21 -221 -30
-285 -15 -52 11 -132 54 -178 95 -38 34 -121 164 -119 187 0 3 0 6 -1 8 -2 7
-11 44 -13 57 -2 8 -6 31 -10 50 -4 19 -8 55 -10 80 -2 25 -5 50 -6 55 -5 24
2 24 38 1 43 -29 120 -58 132 -51 5 3 11 2 14 -3 5 -9 122 -7 166 2 108 23
166 49 276 122 73 48 197 159 250 225 41 50 121 174 129 199 4 14 11 27 15 30
10 8 60 138 60 158 0 10 5 23 12 30 7 7 10 12 7 12 -3 0 -1 28 6 63 20 110 7
294 -27 377 -33 81 -60 122 -118 181 -100 101 -191 140 -342 144 -48 1 -89 1
-90 0z m144 -272 c42 -46 60 -119 59 -243 0 -110 -9 -176 -37 -258 -45 -135
-117 -223 -256 -315 -52 -34 -177 -98 -203 -104 -5 -1 -41 -13 -80 -26 -67
-24 -126 -39 -142 -38 -9 1 -9 8 1 81 15 108 58 254 98 333 10 20 15 37 11 37
-5 0 -3 4 2 8 9 7 22 28 67 112 10 19 24 44 31 55 32 50 74 112 92 134 37 45
171 181 179 181 4 0 16 9 28 20 12 11 39 28 61 39 42 21 58 18 89 -16z"/>
<path d="M10786 8318 c-9 -5 -25 -11 -35 -13 -10 -2 -38 -12 -62 -23 -24 -11
-69 -30 -99 -42 -30 -12 -69 -29 -87 -36 -17 -8 -36 -14 -41 -14 -6 0 7 -38
29 -84 45 -98 73 -209 94 -381 4 -33 8 -71 10 -85 2 -14 7 -50 10 -80 3 -30 8
-71 11 -90 7 -58 14 -132 18 -185 11 -151 38 -323 73 -460 30 -120 29 -116 36
-135 3 -8 15 -44 26 -80 41 -135 154 -390 228 -515 35 -60 76 -78 173 -76 61
2 125 7 125 11 0 1 8 3 17 5 89 17 147 54 218 141 20 25 60 84 60 89 0 3 16
29 35 59 29 45 142 270 189 376 6 14 15 28 21 32 5 4 7 8 3 8 -4 0 5 26 19 58
29 65 123 309 128 332 2 8 15 56 29 106 15 50 29 101 31 113 3 11 7 29 9 39
16 66 46 203 51 232 3 19 8 44 12 54 3 11 7 33 8 50 3 33 12 101 20 145 4 23
17 178 17 206 0 6 -2 37 -5 69 -5 46 -12 66 -33 87 -79 83 -343 51 -462 -55
-21 -18 -22 -51 -3 -66 13 -9 53 -113 56 -144 2 -17 4 -31 5 -31 9 0 -2 -252
-15 -325 -6 -33 -15 -89 -20 -120 -7 -42 -15 -82 -31 -160 -9 -41 -17 -79 -18
-85 -1 -5 -5 -16 -9 -22 -5 -7 -6 -13 -3 -13 3 0 -2 -24 -11 -52 -8 -29 -16
-57 -18 -63 -1 -5 -8 -30 -15 -55 -7 -25 -14 -49 -16 -55 -1 -5 -19 -62 -39
-125 -88 -270 -201 -490 -252 -490 -11 0 -57 53 -59 68 0 4 -3 14 -7 22 -11
29 -47 153 -53 183 -2 17 -7 33 -9 37 -2 3 -7 29 -11 56 -3 27 -8 58 -11 69
-9 42 -12 62 -17 121 -3 34 -8 77 -10 95 -3 19 -8 68 -11 109 -3 41 -7 95 -10
120 -2 24 -7 87 -10 140 -4 52 -9 118 -11 145 -2 28 -6 95 -9 150 -3 55 -7
127 -9 160 -3 33 -7 104 -10 159 -5 86 -10 132 -19 196 -2 8 -6 21 -10 28 -5
6 -5 12 -1 12 4 0 -13 20 -39 46 -44 43 -48 45 -101 43 -30 -1 -62 -6 -70 -11z"/>
<path d="M10005 8282 c-3 -3 -20 -6 -39 -8 -18 -1 -44 -5 -57 -9 -31 -10 -113
-47 -119 -55 -3 -3 -27 -22 -55 -42 -27 -20 -68 -56 -90 -80 -49 -52 -145
-184 -145 -198 0 -5 -4 -10 -9 -10 -5 0 -13 -10 -17 -22 -4 -13 -10 -25 -13
-28 -8 -6 -72 -140 -91 -190 -13 -35 -36 -70 -26 -40 2 8 7 47 11 85 3 39 8
88 10 110 4 47 14 169 21 275 3 41 7 87 8 102 5 45 -22 61 -91 54 -107 -10
-220 -51 -335 -119 l-67 -40 0 -236 c0 -224 -3 -326 -16 -521 -29 -463 -22
-1087 13 -1180 14 -36 56 -75 94 -87 73 -22 210 6 299 62 21 14 43 25 48 25
18 0 19 30 1 86 -10 33 -21 88 -24 124 -4 36 -9 88 -12 115 -14 119 -5 371 16
470 5 22 11 56 14 75 17 110 84 315 145 446 123 261 271 371 395 294 79 -48
117 -214 82 -360 -9 -37 -12 -68 -7 -73 17 -17 150 64 219 133 158 156 223
314 186 454 -7 27 -13 52 -12 55 1 7 -7 29 -29 81 -34 79 -46 100 -54 100 -5
0 -9 5 -9 11 0 15 -90 104 -115 114 -38 14 -124 32 -130 27z"/>
<path d="M14996 8263 c-2 -2 -13 -6 -25 -8 -11 -3 -30 -7 -41 -9 -11 -3 -50
-19 -85 -37 -62 -30 -66 -34 -80 -83 -17 -59 -40 -192 -50 -286 -4 -36 -9 -73
-11 -83 -5 -30 -20 -196 -38 -437 -12 -148 -18 -175 -67 -301 -40 -102 -94
-212 -116 -237 -7 -7 -13 -17 -13 -22 0 -5 -6 -15 -12 -22 -7 -7 -26 -32 -42
-56 -40 -59 -125 -133 -189 -166 -64 -32 -128 -36 -178 -11 -42 21 -99 74 -99
92 0 7 -3 13 -8 13 -10 0 -49 107 -58 160 -9 59 -9 131 1 205 4 33 8 70 8 83
1 12 5 22 10 22 4 0 6 4 3 9 -6 10 36 182 63 256 26 70 74 169 83 173 4 2 8 8
8 13 0 6 19 38 41 72 89 133 266 277 466 380 45 23 83 48 83 55 0 30 -73 163
-105 191 -31 27 -40 30 -92 26 -128 -7 -346 -121 -531 -278 -181 -153 -307
-324 -415 -567 -40 -88 -94 -301 -82 -321 4 -5 3 -9 -2 -9 -9 0 -15 -83 -16
-215 0 -95 7 -175 22 -237 5 -21 7 -38 5 -38 -3 0 0 -9 6 -21 7 -11 14 -32 16
-47 3 -14 8 -30 12 -36 3 -6 7 -15 8 -21 2 -10 40 -91 71 -150 26 -49 144
-158 209 -192 82 -44 166 -62 266 -58 121 4 239 51 358 141 81 61 200 200 200
233 0 6 3 11 8 11 4 0 16 18 26 40 23 47 32 51 33 13 1 -42 14 -147 20 -156 2
-4 7 -19 9 -33 6 -30 47 -116 77 -158 11 -16 48 -42 84 -58 85 -40 170 -44
302 -15 34 8 125 125 100 128 -42 6 -76 28 -102 68 -40 60 -49 87 -54 171 -5
89 -5 57 1 270 5 159 8 223 21 460 10 194 16 335 20 450 2 69 7 188 10 265 8
185 8 329 0 355 -6 19 -14 21 -71 19 -35 -1 -65 -4 -68 -6z"/>
<path d="M12905 8229 c-57 -8 -98 -15 -123 -23 -9 -3 -28 -7 -42 -10 -53 -10
-67 -15 -132 -41 -37 -15 -78 -37 -91 -49 -28 -26 -28 -29 -1 -431 3 -49 5
-101 4 -115 -2 -28 -2 -35 3 -70 2 -14 0 -33 -5 -42 -4 -9 -5 -19 -1 -21 5 -3
7 -31 5 -64 -3 -53 -3 -82 -2 -115 0 -7 -3 -85 -7 -173 -8 -197 -9 -619 0
-700 4 -33 9 -82 12 -110 12 -121 22 -169 41 -207 13 -25 20 -28 65 -28 107 0
291 56 304 93 2 7 7 122 10 257 3 135 7 263 9 285 14 155 24 285 31 385 7 102
14 188 19 230 3 19 8 69 11 110 4 41 8 86 10 100 4 40 17 176 30 315 20 217
24 400 8 416 -14 14 -88 17 -158 8z"/>
</g>
</svg>
